<?xml version="1.0" encoding="utf-8"?>
<!-- Generator: Adobe Illustrator 19.2.1, SVG Export Plug-In . SVG Version: 6.00 Build 0)  -->
<svg version="1.1" id="nav_bu_svg" xmlns="http://www.w3.org/2000/svg" xmlns:xlink="http://www.w3.org/1999/xlink" x="0px"
	 y="0px" viewBox="0 0 18 18" style="enable-background:new 0 0 18 18;" xml:space="preserve">
<style type="text/css">
	.st0{fill:#3E3E3E;}
</style>
<path class="st0" d="M5,3v2H3V3H5 M6,2H2v4h4V2L6,2z"/>
<path class="st0" d="M10,3v2H8V3H10 M11,2H7v4h4V2L11,2z"/>
<path class="st0" d="M15,3v2h-2V3H15 M16,2h-4v4h4V2L16,2z"/>
<path class="st0" d="M5,8v2H3V8H5 M6,7H2v4h4V7L6,7z"/>
<path class="st0" d="M10,8v2H8V8H10 M11,7H7v4h4V7L11,7z"/>
<path class="st0" d="M15,8v2h-2V8H15 M16,7h-4v4h4V7L16,7z"/>
<path class="st0" d="M5,13v2H3v-2H5 M6,12H2v4h4V12L6,12z"/>
<path class="st0" d="M10,13v2H8v-2H10 M11,12H7v4h4V12L11,12z"/>
<path class="st0" d="M15,13v2h-2v-2H15 M16,12h-4v4h4V12L16,12z"/>
</svg>
