<?xml version="1.0" encoding="utf-8"?>
<!-- Generator: Adobe Illustrator 19.2.1, SVG Export Plug-In . SVG Version: 6.00 Build 0)  -->
<svg version="1.1" id="nav_cc_svg" xmlns="http://www.w3.org/2000/svg" xmlns:xlink="http://www.w3.org/1999/xlink" x="0px" y="0px"
	 viewBox="0 0 18 18" style="enable-background:new 0 0 18 18;" xml:space="preserve">
<style type="text/css">
	.st0{fill:#3E3E3E;}
</style>
<path class="st0" d="M9.6,1l-2,4l2.6,0l-6.8,8.2L5.2,6H3.5l2.1-5H9.6 M11.2,0H9.6h-4H5L4.7,0.6l-2.1,5L2,7h1.5h0.4l-1.3,5.7l-0.9,4
	l2.6-3.1l6.8-8L12.5,4l-2.1,0L9.3,4l1.3-2.6L11.2,0L11.2,0z"/>
<rect x="13" y="5" class="st0" width="5" height="1"/>
<rect x="13" y="8" class="st0" width="5" height="1"/>
<rect x="13" y="11" class="st0" width="5" height="1"/>
</svg>
