<?xml version="1.0" encoding="utf-8"?>
<!-- Generator: Adobe Illustrator 19.2.1, SVG Export Plug-In . SVG Version: 6.00 Build 0)  -->
<svg version="1.1" id="nav_rep_svg" xmlns="http://www.w3.org/2000/svg" xmlns:xlink="http://www.w3.org/1999/xlink" x="0px" y="0px"
	 viewBox="0 0 18 18" style="enable-background:new 0 0 18 18;" xml:space="preserve">
<style type="text/css">
	.st0{fill:#3E3E3E;}
	.st1{display:none;opacity:0.44;fill:#D3972D;}
	.st2{fill:#2D2D2D;}
	.st3{display:none;opacity:0.2;}
	.st4{display:inline;fill:#3E3E3E;}
</style>
<rect x="1" y="2" class="st0" width="1" height="13"/>
<polygon class="st1" points="16.9,9.2 12.5,4.8 11.8,5.5 11.8,5.5 7.5,9.8 5.5,7.8 5.5,7.8 5.5,7.8 3.5,9.8 4.2,10.5 5.5,9.2 
	6.8,10.5 6.8,10.5 7.5,11.2 12.5,6.2 16.2,10 "/>
<rect x="8.5" y="7.5" transform="matrix(4.729354e-11 1 -1 4.729354e-11 23.5036 5.4964)" class="st0" width="1" height="14"/>
<rect x="4.4" y="7.8" transform="matrix(0.7071 0.7071 -0.7071 0.7071 7.9032 -0.721)" class="st2" width="0.9" height="2.8"/>
<rect x="5.9" y="7.7" transform="matrix(-0.7071 0.7071 -0.7071 -0.7071 17.406 11.4551)" class="st2" width="0.9" height="3.3"/>
<rect x="9.5" y="4" transform="matrix(0.7071 0.7071 -0.7071 0.7071 8.5778 -4.7283)" class="st2" width="0.9" height="8"/>
<rect x="14.1" y="4.7" transform="matrix(-0.7071 0.7071 -0.7071 -0.7071 30.1676 2.5729)" class="st2" width="0.9" height="5.7"/>
<g class="st3">
	<rect x="4.3" y="7.7" transform="matrix(0.7071 0.7071 -0.7071 0.7071 7.8981 -0.7334)" class="st4" width="1" height="2.9"/>
	<rect x="5.8" y="7.7" transform="matrix(-0.7071 0.7071 -0.7071 -0.7071 17.3622 11.437)" class="st4" width="1" height="3.3"/>
	<rect x="9.5" y="3.9" transform="matrix(0.7071 0.7071 -0.7071 0.7071 8.5756 -4.7336)" class="st4" width="1" height="8.1"/>
	<rect x="14.1" y="4.7" transform="matrix(-0.7071 0.7071 -0.7071 -0.7071 30.1676 2.5729)" class="st4" width="1" height="5.7"/>
</g>
</svg>
