<?xml version="1.0" encoding="utf-8"?>
<!-- Generator: Adobe Illustrator 19.2.1, SVG Export Plug-In . SVG Version: 6.00 Build 0)  -->
<svg version="1.1" id="nav_st_svg" xmlns="http://www.w3.org/2000/svg" xmlns:xlink="http://www.w3.org/1999/xlink" x="0px"
	 y="0px" viewBox="0 0 18 18" style="enable-background:new 0 0 18 18;" xml:space="preserve">
<style type="text/css">
	.st0{fill:#3E3E3E;}
</style>
<path class="st0" d="M16,17H1V3h15V17z M2,16h13V4H2V16z"/>
<rect x="1" y="6" class="st0" width="14.7" height="1"/>
<rect x="3" y="3" transform="matrix(2.237355e-10 1 -1 2.237355e-10 7.9988 -0.9988)" class="st0" width="3" height="1"/>
<rect x="11" y="3" transform="matrix(2.243421e-10 1 -1 2.243421e-10 16.0002 -9.0002)" class="st0" width="3" height="1"/>
<rect x="6" y="8" class="st0" width="2" height="1"/>
<rect x="9" y="8" class="st0" width="2" height="1"/>
<rect x="12" y="8" class="st0" width="2" height="1"/>
<rect x="6" y="10" class="st0" width="2" height="1"/>
<rect x="3" y="10" class="st0" width="2" height="1"/>
<rect x="9" y="10" class="st0" width="2" height="1"/>
<rect x="12" y="10" class="st0" width="2" height="1"/>
<rect x="6" y="12" class="st0" width="2" height="1"/>
<rect x="3" y="12" class="st0" width="2" height="1"/>
<rect x="9" y="12" class="st0" width="2" height="1"/>
<rect x="12" y="12" class="st0" width="2" height="1"/>
<rect x="6" y="14" class="st0" width="2" height="1"/>
<rect x="3" y="14" class="st0" width="2" height="1"/>
<rect x="9" y="14" class="st0" width="2" height="1"/>
</svg>
