?xml version="1.0" encoding="utf-8"?>
<!-- Generator: Adobe Illustrator 19.2.1, SVG Export Plug-In . SVG Version: 6.00 Build 0)  -->
<svg version="1.1" id="nav_br_svg" xmlns="http://www.w3.org/2000/svg" xmlns:xlink="http://www.w3.org/1999/xlink" x="0px"
	 y="0px" viewBox="0 0 18 18" style="enable-background:new 0 0 18 18;" xml:space="preserve">
<style type="text/css">
	.st0{fill:#3E3E3E;}
	.st1{opacity:0.3;fill:#3E3E3E;}
</style>
<path class="st0" d="M13.5,11.5c1.1,0,1.9,0.9,1.9,1.9s-0.9,1.9-1.9,1.9s-1.9-0.9-1.9-1.9S12.4,11.5,13.5,11.5z M13.9,10h-0.9
	l-0.3,1c-0.2,0.1-0.4,0.1-0.6,0.2l-0.9-0.5l-0.6,0.6l0.5,0.9c-0.1,0.2-0.2,0.4-0.2,0.6l-1,0.3v0.9l1,0.3c0.1,0.2,0.1,0.4,0.2,0.6
	l-0.5,0.9l0.6,0.6l0.9-0.5c0.2,0.1,0.4,0.2,0.6,0.2l0.3,1h0.9l0.3-1c0.2-0.1,0.4-0.1,0.6-0.2l0.9,0.5l0.6-0.6l-0.5-0.9
	c0.1-0.2,0.2-0.4,0.2-0.6l1-0.3v-0.9l-1-0.3c-0.1-0.2-0.1-0.4-0.2-0.6l0.5-0.9l-0.6-0.6l-0.9,0.5c-0.2-0.1-0.4-0.2-0.6-0.2L13.9,10z
	"/>
<g id="Windows_4_">
	<polygon class="st0" points="1,2 1,15 8,15 8,14 2,14 2,5 2,4 2,3 15,3 15,4 15,5 15,8 16,8 16,2 	"/>
	<polygon class="st0" points="1,2 1,15 8,15 8,14 2,14 2,5 2,4 2,3 15,3 15,4 15,5 15,8 16,8 16,2 	"/>
</g>
<path class="st0" d="M10.4,8.5c0-0.1,0-0.2,0-0.2l0.9-0.5L11,7.2l-1,0.2C9.9,7.2,9.8,7.1,9.6,7l0.3-1L9.3,5.7L8.8,6.6
	c-0.1,0-0.2,0-0.3,0c-0.1,0-0.2,0-0.2,0L7.7,5.7L7.1,5.9l0.2,1C7.2,7,7,7.2,6.9,7.3L5.9,7L5.7,7.6l0.8,0.5c0,0.1,0,0.2,0,0.3
	c0,0.1,0,0.2,0,0.2L5.6,9.2l0.2,0.6l1-0.2C7,9.8,7.1,9.9,7.3,10L7,11l0.6,0.3l0.5-0.8c0.1,0,0.2,0,0.3,0c0.1,0,0.2,0,0.2,0l0.5,0.9
	l0.6-0.2l-0.2-1C9.7,10,9.9,9.8,10,9.7l1,0.3l0.3-0.6l-0.8-0.5C10.4,8.7,10.4,8.6,10.4,8.5z M7,8.5c0-0.8,0.7-1.4,1.4-1.4
	c0.8,0,1.4,0.7,1.4,1.4S9.2,9.9,8.4,9.9C7.6,9.9,7,9.3,7,8.5z"/>
<path class="st1" d="M10.4,8.5c0-0.1,0-0.2,0-0.2l0.9-0.5L11,7.2l-1,0.2C9.9,7.2,9.8,7.1,9.6,7l0.3-1L9.3,5.7L8.8,6.6
	c-0.1,0-0.2,0-0.3,0c-0.1,0-0.2,0-0.2,0L7.7,5.7L7.1,5.9l0.2,1C7.2,7,7,7.2,6.9,7.3L5.9,7L5.7,7.6l0.8,0.5c0,0.1,0,0.2,0,0.3
	c0,0.1,0,0.2,0,0.2L5.6,9.2l0.2,0.6l1-0.2C7,9.8,7.1,9.9,7.3,10L7,11l0.6,0.3l0.5-0.8c0.1,0,0.2,0,0.3,0c0.1,0,0.2,0,0.2,0l0.5,0.9
	l0.6-0.2l-0.2-1C9.7,10,9.9,9.8,10,9.7l1,0.3l0.3-0.6l-0.8-0.5C10.4,8.7,10.4,8.6,10.4,8.5z M7,8.5c0-0.8,0.7-1.4,1.4-1.4
	c0.8,0,1.4,0.7,1.4,1.4S9.2,9.9,8.4,9.9C7.6,9.9,7,9.3,7,8.5z"/>
</svg>
