<?xml version="1.0" encoding="utf-8"?>
<!-- Generator: Adobe Illustrator 19.2.1, SVG Export Plug-In . SVG Version: 6.00 Build 0)  -->
<svg version="1.1" id="nav_pss_svg"
	 xmlns="http://www.w3.org/2000/svg" xmlns:xlink="http://www.w3.org/1999/xlink" x="0px" y="0px" viewBox="0 0 18 17"
	 style="enable-background:new 0 0 18 17;" xml:space="preserve">
<style type="text/css">
	.st0{fill:#3E3E3E;}
</style>
<rect x="13" y="6" class="st0" width="4" height="1"/>
<rect x="13" y="10" class="st0" width="4" height="1"/>
<rect x="13" y="8" class="st0" width="3" height="1"/>
<rect x="11" y="3" class="st0" width="1" height="11"/>
<rect x="9" y="1" transform="matrix(1.273299e-11 -1 1 1.273299e-11 7 12)" class="st0" width="1" height="3"/>
<rect x="13" y="1" transform="matrix(1.091400e-11 -1 1 1.091400e-11 11 16)" class="st0" width="1" height="3"/>
<rect x="9" y="13" transform="matrix(1.273299e-11 -1 1 1.273299e-11 -5 24)" class="st0" width="1" height="3"/>
<rect x="13" y="13" transform="matrix(1.091400e-11 -1 1 1.091400e-11 -1 28)" class="st0" width="1" height="3"/>
<circle class="st0" cx="2.5" cy="8.5" r="1.5"/>
<circle class="st0" cx="7.5" cy="8.5" r="1.5"/>
</svg>
