<?xml version="1.0" encoding="utf-8"?>
<!-- Generator: Adobe Illustrator 19.2.1, SVG Export Plug-In . SVG Version: 6.00 Build 0)  -->
<svg version="1.1" id="nav_sr_svg" xmlns="http://www.w3.org/2000/svg" xmlns:xlink="http://www.w3.org/1999/xlink" x="0px" y="0px"
	 viewBox="0 0 18 18" style="enable-background:new 0 0 18 18;" xml:space="preserve">
<style type="text/css">
	.st0{fill:none;}
	.st1{fill:#3E3E3E;}
</style>
<g id="Security_2">
	<g>
		<path class="st0" d="M8.5,2.2C7.6,3.2,5.7,4.7,2.9,5v4.1l0,0l0,0c1.5,2.3,3.3,4.4,5.3,6.3l0.2,0.2c1.2-1.1,2.4-2.4,3.4-3.7H10v-1
			H8V5h6.1v0C11.3,4.7,9.4,3.2,8.5,2.2z"/>
		<path class="st1" d="M11.9,12c-1.1,1.3-2.2,2.5-3.4,3.7l-0.2-0.2c-2-1.9-3.8-4-5.3-6.3l0,0l0,0V5c2.8-0.3,4.6-1.8,5.6-2.8
			c0.9,1,2.8,2.5,5.6,2.8v0H15V4.5c0-0.2-0.2-0.4-0.4-0.4C11.4,4,9.5,2,8.8,1.2C8.7,1.1,8.6,1,8.5,1s-0.2,0-0.3,0.1
			C7.5,2,5.6,4,2.4,4.1C2.2,4.1,2,4.3,2,4.5v4.8c0,0.1,0.1,0.2,0.1,0.3c1.6,2.4,3.4,4.6,5.6,6.6l0.5,0.5c0.1,0.1,0.2,0.1,0.3,0.1
			s0.2,0,0.3-0.1l0.1-0.1c1.5-1.4,2.9-2.9,4.1-4.5V12H11.9z"/>
	</g>
</g>
<g id="Security_3">
	<rect x="15.5" y="15.5" transform="matrix(-1.836970e-16 1 -1 -1.836970e-16 32.5 0.5)" class="st1" width="1" height="2"/>
	<rect x="15.5" y="13.5" transform="matrix(-1.836970e-16 1 -1 -1.836970e-16 30.5 -1.5)" class="st1" width="1" height="2"/>
	<rect x="14" y="11" class="st1" width="1" height="7"/>
</g>
<g id="Security_3__x28_копия_x29_">
	<g>
		<path class="st1" d="M17,8.5C17,7.1,15.9,6,14.5,6C13.1,6,12,7.1,12,8.5c0,1.4,1.1,2.5,2.5,2.5C15.9,11,17,9.9,17,8.5z M14.5,10
			C13.7,10,13,9.3,13,8.5S13.7,7,14.5,7S16,7.7,16,8.5S15.3,10,14.5,10z"/>
		<polygon class="st1" points="15,11 14.5,11 14,11 14,18 15,18 15,17 17,17 17,16 15,16 15,15 17,15 17,14 15,14 		"/>
	</g>
</g>
</svg>
