<?xml version="1.0" encoding="utf-8"?>
<!-- Generator: Adobe Illustrator 19.2.1, SVG Export Plug-In . SVG Version: 6.00 Build 0)  -->
<svg version="1.1" id="nav_wi_svg"
	 xmlns="http://www.w3.org/2000/svg" xmlns:xlink="http://www.w3.org/1999/xlink" x="0px" y="0px" viewBox="0 0 18 18"
	 style="enable-background:new 0 0 18 18;" xml:space="preserve">
<style type="text/css">
	.st0{fill:#3E3E3E;}
</style>
<path class="st0" d="M17,9c0-4.3-3.4-7.8-7.7-8c0,0-0.1,0-0.1,0c0,0,0,0,0,0C9.1,1,9,1,9,1C4.6,1,1,4.6,1,9s3.6,8,8,8
	c0,0,0.1,0,0.1,0c0,0,0,0,0,0c0,0,0.1,0,0.1,0C13.6,16.8,17,13.3,17,9z M15.7,11h-3.5c0.1-0.6,0.1-1.3,0.1-2s0-1.4-0.1-2h3.5
	C15.9,7.6,16,8.3,16,9S15.9,10.4,15.7,11z M9.2,16C9.2,16,9.2,16,9.2,16c-0.4,0-0.9-0.6-1.4-1.7c-0.3-0.7-0.5-1.5-0.6-2.3h3.9
	c-0.1,0.9-0.3,1.6-0.6,2.3C10,15.4,9.5,16,9.2,16z M7.1,11C7,10.4,7,9.7,7,9s0-1.4,0.1-2h4.1c0.1,0.6,0.1,1.3,0.1,2s0,1.4-0.1,2H7.1
	z M9.1,2C9.2,2,9.2,2,9.1,2C9.5,2,10,2.6,10.5,3.7c0.3,0.7,0.5,1.5,0.6,2.3H7.2c0.1-0.9,0.3-1.6,0.6-2.3C8.3,2.5,8.8,2,9.1,2z
	 M15.4,6h-3.3c-0.3-1.6-0.7-2.9-1.3-3.8C12.8,2.7,14.5,4.1,15.4,6z M7.6,2.1C7,3,6.5,4.4,6.3,6H2.6C3.6,4,5.4,2.6,7.6,2.1z M2.3,7
	h3.9C6.1,7.6,6,8.3,6,9s0,1.4,0.1,2H2.3C2.1,10.4,2,9.7,2,9C2,8.3,2.1,7.6,2.3,7z M2.6,12h3.6c0.3,1.6,0.7,3,1.3,3.9
	C5.4,15.4,3.6,14,2.6,12z M10.8,15.8c0.6-0.9,1-2.2,1.3-3.8h3.3C14.5,13.9,12.8,15.3,10.8,15.8z"/>
</svg>
