<?xml version="1.0" encoding="UTF-8" standalone="no"?><svg xmlns="http://www.w3.org/2000/svg" xmlns:xlink="http://www.w3.org/1999/xlink"><symbol id="Business Rules" version="1.1" xmlns="http://www.w3.org/2000/svg" xmlns:xlink="http://www.w3.org/1999/xlink" x="0px" y="0px" viewBox="0 0 18 18" style="enable-background:new 0 0 18 18;" xml:space="preserve"><style type="text/css"><![CDATA[.st0{fill:#3E3E3E;}.st1{opacity:0.3;fill:#3E3E3E;}]]></style><path class="st0" d="M13.5,11.5c1.1,0,1.9,0.9,1.9,1.9s-0.9,1.9-1.9,1.9s-1.9-0.9-1.9-1.9S12.4,11.5,13.5,11.5z M13.9,10h-0.9
	l-0.3,1c-0.2,0.1-0.4,0.1-0.6,0.2l-0.9-0.5l-0.6,0.6l0.5,0.9c-0.1,0.2-0.2,0.4-0.2,0.6l-1,0.3v0.9l1,0.3c0.1,0.2,0.1,0.4,0.2,0.6
	l-0.5,0.9l0.6,0.6l0.9-0.5c0.2,0.1,0.4,0.2,0.6,0.2l0.3,1h0.9l0.3-1c0.2-0.1,0.4-0.1,0.6-0.2l0.9,0.5l0.6-0.6l-0.5-0.9
	c0.1-0.2,0.2-0.4,0.2-0.6l1-0.3v-0.9l-1-0.3c-0.1-0.2-0.1-0.4-0.2-0.6l0.5-0.9l-0.6-0.6l-0.9,0.5c-0.2-0.1-0.4-0.2-0.6-0.2L13.9,10z"></path><g><polygon class="st0" points="1,2 1,15 8,15 8,14 2,14 2,5 2,4 2,3 15,3 15,4 15,5 15,8 16,8 16,2"></polygon><polygon class="st0" points="1,2 1,15 8,15 8,14 2,14 2,5 2,4 2,3 15,3 15,4 15,5 15,8 16,8 16,2"></polygon></g><path class="st0" d="M10.4,8.5c0-0.1,0-0.2,0-0.2l0.9-0.5L11,7.2l-1,0.2C9.9,7.2,9.8,7.1,9.6,7l0.3-1L9.3,5.7L8.8,6.6
	c-0.1,0-0.2,0-0.3,0c-0.1,0-0.2,0-0.2,0L7.7,5.7L7.1,5.9l0.2,1C7.2,7,7,7.2,6.9,7.3L5.9,7L5.7,7.6l0.8,0.5c0,0.1,0,0.2,0,0.3
	c0,0.1,0,0.2,0,0.2L5.6,9.2l0.2,0.6l1-0.2C7,9.8,7.1,9.9,7.3,10L7,11l0.6,0.3l0.5-0.8c0.1,0,0.2,0,0.3,0c0.1,0,0.2,0,0.2,0l0.5,0.9
	l0.6-0.2l-0.2-1C9.7,10,9.9,9.8,10,9.7l1,0.3l0.3-0.6l-0.8-0.5C10.4,8.7,10.4,8.6,10.4,8.5z M7,8.5c0-0.8,0.7-1.4,1.4-1.4
	c0.8,0,1.4,0.7,1.4,1.4S9.2,9.9,8.4,9.9C7.6,9.9,7,9.3,7,8.5z"></path><path class="st1" d="M10.4,8.5c0-0.1,0-0.2,0-0.2l0.9-0.5L11,7.2l-1,0.2C9.9,7.2,9.8,7.1,9.6,7l0.3-1L9.3,5.7L8.8,6.6
	c-0.1,0-0.2,0-0.3,0c-0.1,0-0.2,0-0.2,0L7.7,5.7L7.1,5.9l0.2,1C7.2,7,7,7.2,6.9,7.3L5.9,7L5.7,7.6l0.8,0.5c0,0.1,0,0.2,0,0.3
	c0,0.1,0,0.2,0,0.2L5.6,9.2l0.2,0.6l1-0.2C7,9.8,7.1,9.9,7.3,10L7,11l0.6,0.3l0.5-0.8c0.1,0,0.2,0,0.3,0c0.1,0,0.2,0,0.2,0l0.5,0.9
	l0.6-0.2l-0.2-1C9.7,10,9.9,9.8,10,9.7l1,0.3l0.3-0.6l-0.8-0.5C10.4,8.7,10.4,8.6,10.4,8.5z M7,8.5c0-0.8,0.7-1.4,1.4-1.4
	c0.8,0,1.4,0.7,1.4,1.4S9.2,9.9,8.4,9.9C7.6,9.9,7,9.3,7,8.5z"></path></symbol><symbol id="Business Units" version="1.1" xmlns="http://www.w3.org/2000/svg" xmlns:xlink="http://www.w3.org/1999/xlink" x="0px" y="0px" viewBox="0 0 18 18" style="enable-background:new 0 0 18 18;" xml:space="preserve"><style type="text/css"><![CDATA[.st0{fill:#3E3E3E;}]]></style><path class="st0" d="M5,3v2H3V3H5 M6,2H2v4h4V2L6,2z"></path><path class="st0" d="M10,3v2H8V3H10 M11,2H7v4h4V2L11,2z"></path><path class="st0" d="M15,3v2h-2V3H15 M16,2h-4v4h4V2L16,2z"></path><path class="st0" d="M5,8v2H3V8H5 M6,7H2v4h4V7L6,7z"></path><path class="st0" d="M10,8v2H8V8H10 M11,7H7v4h4V7L11,7z"></path><path class="st0" d="M15,8v2h-2V8H15 M16,7h-4v4h4V7L16,7z"></path><path class="st0" d="M5,13v2H3v-2H5 M6,12H2v4h4V12L6,12z"></path><path class="st0" d="M10,13v2H8v-2H10 M11,12H7v4h4V12L11,12z"></path><path class="st0" d="M15,13v2h-2v-2H15 M16,12h-4v4h4V12L16,12z"></path></symbol><symbol id="Custom Commands" version="1.1" xmlns="http://www.w3.org/2000/svg" xmlns:xlink="http://www.w3.org/1999/xlink" x="0px" y="0px" viewBox="0 0 18 18" style="enable-background:new 0 0 18 18;" xml:space="preserve"><style type="text/css"><![CDATA[.st0{fill:#3E3E3E;}]]></style><path class="st0" d="M9.6,1l-2,4l2.6,0l-6.8,8.2L5.2,6H3.5l2.1-5H9.6 M11.2,0H9.6h-4H5L4.7,0.6l-2.1,5L2,7h1.5h0.4l-1.3,5.7l-0.9,4
	l2.6-3.1l6.8-8L12.5,4l-2.1,0L9.3,4l1.3-2.6L11.2,0L11.2,0z"></path><rect x="13" y="5" class="st0" width="5" height="1"></rect><rect x="13" y="8" class="st0" width="5" height="1"></rect><rect x="13" y="11" class="st0" width="5" height="1"></rect></symbol><symbol id="Menu" version="1.1" xmlns="http://www.w3.org/2000/svg" xmlns:xlink="http://www.w3.org/1999/xlink" x="0px" y="0px" viewBox="0 0 18 18" style="enable-background:new 0 0 18 18;" xml:space="preserve"><style type="text/css"><![CDATA[.st0{fill:#3E3E3E;}]]></style><rect x="2" y="4" class="st0" width="14" height="1"></rect><rect x="2" y="8" class="st0" width="14" height="1"></rect><rect x="2" y="12" class="st0" width="14" height="1"></rect></symbol><symbol id="Password Self-Service" version="1.1" xmlns="http://www.w3.org/2000/svg" xmlns:xlink="http://www.w3.org/1999/xlink" x="0px" y="0px" viewBox="0 0 18 17" style="enable-background:new 0 0 18 17;" xml:space="preserve"><style type="text/css"><![CDATA[.st0{fill:#3E3E3E;}]]></style><rect x="13" y="6" class="st0" width="4" height="1"></rect><rect x="13" y="10" class="st0" width="4" height="1"></rect><rect x="13" y="8" class="st0" width="3" height="1"></rect><rect x="11" y="3" class="st0" width="1" height="11"></rect><rect x="9" y="1" transform="matrix(1.273299e-11 -1 1 1.273299e-11 7 12)" class="st0" width="1" height="3"></rect><rect x="13" y="1" transform="matrix(1.091400e-11 -1 1 1.091400e-11 11 16)" class="st0" width="1" height="3"></rect><rect x="9" y="13" transform="matrix(1.273299e-11 -1 1 1.273299e-11 -5 24)" class="st0" width="1" height="3"></rect><rect x="13" y="13" transform="matrix(1.091400e-11 -1 1 1.091400e-11 -1 28)" class="st0" width="1" height="3"></rect><circle class="st0" cx="2.5" cy="8.5" r="1.5"></circle><circle class="st0" cx="7.5" cy="8.5" r="1.5"></circle></symbol><symbol id="Property Patterns" version="1.1" xmlns="http://www.w3.org/2000/svg" xmlns:xlink="http://www.w3.org/1999/xlink" x="0px" y="0px" viewBox="0 0 18 18" style="enable-background:new 0 0 18 18;" xml:space="preserve"><style type="text/css"><![CDATA[.st0{fill:#3E3E3E;}]]></style><path class="st0" d="M16,17H2V6h14V17z M3,16h12V7H3V16z"></path><rect x="6" y="10" class="st0" width="6" height="1"></rect><rect x="6" y="12" class="st0" width="6" height="1"></rect><rect x="3" y="4" class="st0" width="12" height="1"></rect><rect x="4" y="2" class="st0" width="10" height="1"></rect></symbol><symbol id="Reports" version="1.1" xmlns="http://www.w3.org/2000/svg" xmlns:xlink="http://www.w3.org/1999/xlink" x="0px" y="0px" viewBox="0 0 18 18" style="enable-background:new 0 0 18 18;" xml:space="preserve"><style type="text/css"><![CDATA[.st0{fill:#3E3E3E;}.st1{display:none;opacity:0.44;fill:#D3972D;}.st2{fill:#2D2D2D;}.st3{display:none;opacity:0.2;}.st4{display:inline;fill:#3E3E3E;}]]></style><rect x="1" y="2" class="st0" width="1" height="13"></rect><polygon class="st1" points="16.9,9.2 12.5,4.8 11.8,5.5 11.8,5.5 7.5,9.8 5.5,7.8 5.5,7.8 5.5,7.8 3.5,9.8 4.2,10.5 5.5,9.2 
	6.8,10.5 6.8,10.5 7.5,11.2 12.5,6.2 16.2,10"></polygon><rect x="8.5" y="7.5" transform="matrix(4.729354e-11 1 -1 4.729354e-11 23.5036 5.4964)" class="st0" width="1" height="14"></rect><rect x="4.4" y="7.8" transform="matrix(0.7071 0.7071 -0.7071 0.7071 7.9032 -0.721)" class="st2" width="0.9" height="2.8"></rect><rect x="5.9" y="7.7" transform="matrix(-0.7071 0.7071 -0.7071 -0.7071 17.406 11.4551)" class="st2" width="0.9" height="3.3"></rect><rect x="9.5" y="4" transform="matrix(0.7071 0.7071 -0.7071 0.7071 8.5778 -4.7283)" class="st2" width="0.9" height="8"></rect><rect x="14.1" y="4.7" transform="matrix(-0.7071 0.7071 -0.7071 -0.7071 30.1676 2.5729)" class="st2" width="0.9" height="5.7"></rect><g class="st3"><rect x="4.3" y="7.7" transform="matrix(0.7071 0.7071 -0.7071 0.7071 7.8981 -0.7334)" class="st4" width="1" height="2.9"></rect><rect x="5.8" y="7.7" transform="matrix(-0.7071 0.7071 -0.7071 -0.7071 17.3622 11.437)" class="st4" width="1" height="3.3"></rect><rect x="9.5" y="3.9" transform="matrix(0.7071 0.7071 -0.7071 0.7071 8.5756 -4.7336)" class="st4" width="1" height="8.1"></rect><rect x="14.1" y="4.7" transform="matrix(-0.7071 0.7071 -0.7071 -0.7071 30.1676 2.5729)" class="st4" width="1" height="5.7"></rect></g></symbol><symbol id="second" version="1.1" class="xxxiii" xmlns="http://www.w3.org/2000/svg" xmlns:xlink="http://www.w3.org/1999/xlink" x="0px" y="0px" width="273.4px" height="222.2px" viewBox="0 0 273.4 222.2" style="enable-background:new 0 0 273.4 222.2;" xml:space="preserve"><path d="M273.4,26.3c-10.1,4.5-20.9,7.5-32.2,8.8c11.6-6.9,20.5-17.9,24.7-31C255,10.5,243,15.2,230.2,17.7
	C220,6.8,205.4,0,189.3,0c-31,0-56.1,25.1-56.1,56.1c0,4.4,0.5,8.7,1.5,12.8C88,66.5,46.7,44.2,19,10.3c-4.8,8.3-7.6,17.9-7.6,28.2
	c0,19.5,9.9,36.6,25,46.7c-9.2-0.3-17.8-2.8-25.4-7c0,0.2,0,0.5,0,0.7c0,27.2,19.3,49.8,45,55c-4.7,1.3-9.7,2-14.8,2
	c-3.6,0-7.1-0.4-10.6-1c7.1,22.3,27.9,38.5,52.4,39c-19.2,15-43.4,24-69.7,24c-4.5,0-9-0.3-13.4-0.8c24.8,15.9,54.3,25.2,86,25.2
	c103.2,0,159.6-85.5,159.6-159.6c0-2.4-0.1-4.9-0.2-7.3C256.4,47.4,265.9,37.5,273.4,26.3z"></path></symbol><symbol id="Security Roles" version="1.1" xmlns="http://www.w3.org/2000/svg" xmlns:xlink="http://www.w3.org/1999/xlink" x="0px" y="0px" viewBox="0 0 18 18" style="enable-background:new 0 0 18 18;" xml:space="preserve"><style type="text/css"><![CDATA[.st0{fill:none;}.st1{fill:#3E3E3E;}]]></style><g><g><path class="st0" d="M8.5,2.2C7.6,3.2,5.7,4.7,2.9,5v4.1l0,0l0,0c1.5,2.3,3.3,4.4,5.3,6.3l0.2,0.2c1.2-1.1,2.4-2.4,3.4-3.7H10v-1
			H8V5h6.1v0C11.3,4.7,9.4,3.2,8.5,2.2z"></path><path class="st1" d="M11.9,12c-1.1,1.3-2.2,2.5-3.4,3.7l-0.2-0.2c-2-1.9-3.8-4-5.3-6.3l0,0l0,0V5c2.8-0.3,4.6-1.8,5.6-2.8
			c0.9,1,2.8,2.5,5.6,2.8v0H15V4.5c0-0.2-0.2-0.4-0.4-0.4C11.4,4,9.5,2,8.8,1.2C8.7,1.1,8.6,1,8.5,1s-0.2,0-0.3,0.1
			C7.5,2,5.6,4,2.4,4.1C2.2,4.1,2,4.3,2,4.5v4.8c0,0.1,0.1,0.2,0.1,0.3c1.6,2.4,3.4,4.6,5.6,6.6l0.5,0.5c0.1,0.1,0.2,0.1,0.3,0.1
			s0.2,0,0.3-0.1l0.1-0.1c1.5-1.4,2.9-2.9,4.1-4.5V12H11.9z"></path></g></g><g><rect x="15.5" y="15.5" transform="matrix(-1.836970e-16 1 -1 -1.836970e-16 32.5 0.5)" class="st1" width="1" height="2"></rect><rect x="15.5" y="13.5" transform="matrix(-1.836970e-16 1 -1 -1.836970e-16 30.5 -1.5)" class="st1" width="1" height="2"></rect><rect x="14" y="11" class="st1" width="1" height="7"></rect></g><g><g><path class="st1" d="M17,8.5C17,7.1,15.9,6,14.5,6C13.1,6,12,7.1,12,8.5c0,1.4,1.1,2.5,2.5,2.5C15.9,11,17,9.9,17,8.5z M14.5,10
			C13.7,10,13,9.3,13,8.5S13.7,7,14.5,7S16,7.7,16,8.5S15.3,10,14.5,10z"></path><polygon class="st1" points="15,11 14.5,11 14,11 14,18 15,18 15,17 17,17 17,16 15,16 15,15 17,15 17,14 15,14"></polygon></g></g></symbol><symbol id="Sheduled Tasks" version="1.1" xmlns="http://www.w3.org/2000/svg" xmlns:xlink="http://www.w3.org/1999/xlink" x="0px" y="0px" viewBox="0 0 18 18" style="enable-background:new 0 0 18 18;" xml:space="preserve"><style type="text/css"><![CDATA[.st0{fill:#3E3E3E;}]]></style><path class="st0" d="M16,17H1V3h15V17z M2,16h13V4H2V16z"></path><rect x="1" y="6" class="st0" width="14.7" height="1"></rect><rect x="3" y="3" transform="matrix(2.237355e-10 1 -1 2.237355e-10 7.9988 -0.9988)" class="st0" width="3" height="1"></rect><rect x="11" y="3" transform="matrix(2.243421e-10 1 -1 2.243421e-10 16.0002 -9.0002)" class="st0" width="3" height="1"></rect><rect x="6" y="8" class="st0" width="2" height="1"></rect><rect x="9" y="8" class="st0" width="2" height="1"></rect><rect x="12" y="8" class="st0" width="2" height="1"></rect><rect x="6" y="10" class="st0" width="2" height="1"></rect><rect x="3" y="10" class="st0" width="2" height="1"></rect><rect x="9" y="10" class="st0" width="2" height="1"></rect><rect x="12" y="10" class="st0" width="2" height="1"></rect><rect x="6" y="12" class="st0" width="2" height="1"></rect><rect x="3" y="12" class="st0" width="2" height="1"></rect><rect x="9" y="12" class="st0" width="2" height="1"></rect><rect x="12" y="12" class="st0" width="2" height="1"></rect><rect x="6" y="14" class="st0" width="2" height="1"></rect><rect x="3" y="14" class="st0" width="2" height="1"></rect><rect x="9" y="14" class="st0" width="2" height="1"></rect></symbol><symbol id="Web Interface" version="1.1" xmlns="http://www.w3.org/2000/svg" xmlns:xlink="http://www.w3.org/1999/xlink" x="0px" y="0px" viewBox="0 0 18 18" style="enable-background:new 0 0 18 18;" xml:space="preserve"><style type="text/css"><![CDATA[.st0{fill:#3E3E3E;}]]></style><path class="st0" d="M17,9c0-4.3-3.4-7.8-7.7-8c0,0-0.1,0-0.1,0c0,0,0,0,0,0C9.1,1,9,1,9,1C4.6,1,1,4.6,1,9s3.6,8,8,8
	c0,0,0.1,0,0.1,0c0,0,0,0,0,0c0,0,0.1,0,0.1,0C13.6,16.8,17,13.3,17,9z M15.7,11h-3.5c0.1-0.6,0.1-1.3,0.1-2s0-1.4-0.1-2h3.5
	C15.9,7.6,16,8.3,16,9S15.9,10.4,15.7,11z M9.2,16C9.2,16,9.2,16,9.2,16c-0.4,0-0.9-0.6-1.4-1.7c-0.3-0.7-0.5-1.5-0.6-2.3h3.9
	c-0.1,0.9-0.3,1.6-0.6,2.3C10,15.4,9.5,16,9.2,16z M7.1,11C7,10.4,7,9.7,7,9s0-1.4,0.1-2h4.1c0.1,0.6,0.1,1.3,0.1,2s0,1.4-0.1,2H7.1
	z M9.1,2C9.2,2,9.2,2,9.1,2C9.5,2,10,2.6,10.5,3.7c0.3,0.7,0.5,1.5,0.6,2.3H7.2c0.1-0.9,0.3-1.6,0.6-2.3C8.3,2.5,8.8,2,9.1,2z
	 M15.4,6h-3.3c-0.3-1.6-0.7-2.9-1.3-3.8C12.8,2.7,14.5,4.1,15.4,6z M7.6,2.1C7,3,6.5,4.4,6.3,6H2.6C3.6,4,5.4,2.6,7.6,2.1z M2.3,7
	h3.9C6.1,7.6,6,8.3,6,9s0,1.4,0.1,2H2.3C2.1,10.4,2,9.7,2,9C2,8.3,2.1,7.6,2.3,7z M2.6,12h3.6c0.3,1.6,0.7,3,1.3,3.9
	C5.4,15.4,3.6,14,2.6,12z M10.8,15.8c0.6-0.9,1-2.2,1.3-3.8h3.3C14.5,13.9,12.8,15.3,10.8,15.8z"></path></symbol></svg>